<svg width="271.1" height="61.1" viewBox="0 0 271.1 61.1" xmlns="http://www.w3.org/2000/svg"><g id="svgGroup" stroke-linecap="round" fill-rule="evenodd" font-size="9pt" stroke="#ffffff" stroke-width="0.25mm" fill="#ffffff" style="stroke:#ffffff;stroke-width:0.25mm;fill:#ffffff"><path d="M 165.9 59.9 L 163.5 59.9 L 163.5 0.8 L 165.7 0.8 L 188.8 54.5 L 188.8 0.8 L 191.1 0.8 L 191.1 59.9 L 188.7 59.9 L 165.9 7.3 L 165.9 59.9 Z M 205.6 47.9 L 205.6 13 A 29.757 29.757 0 0 1 205.742 9.979 Q 206.106 6.427 207.4 4.45 Q 209.2 1.7 212.35 0.85 A 24.074 24.074 0 0 1 216.131 0.163 A 31.584 31.584 0 0 1 219.4 0 Q 223.119 0 226.016 0.778 A 18.263 18.263 0 0 1 226.45 0.9 Q 229.5 1.8 231.3 4.55 A 8.982 8.982 0 0 1 232.325 6.789 Q 233.1 9.259 233.1 13 L 233.1 22 L 230.7 22 L 230.7 13.2 A 28.625 28.625 0 0 0 230.585 10.541 Q 230.337 7.89 229.552 6.221 A 6.842 6.842 0 0 0 229.25 5.65 A 7.22 7.22 0 0 0 227.449 3.576 A 6.682 6.682 0 0 0 225.2 2.45 A 18.526 18.526 0 0 0 222.24 1.865 A 25.045 25.045 0 0 0 219.3 1.7 Q 216 1.7 213.4 2.45 Q 210.8 3.2 209.35 5.65 A 8.298 8.298 0 0 0 208.555 7.543 Q 207.992 9.46 207.913 12.26 A 33.304 33.304 0 0 0 207.9 13.2 L 207.9 47.8 A 28.625 28.625 0 0 0 208.015 50.459 Q 208.263 53.11 209.048 54.779 A 6.842 6.842 0 0 0 209.35 55.35 A 7.22 7.22 0 0 0 211.151 57.425 A 6.682 6.682 0 0 0 213.4 58.55 A 18.526 18.526 0 0 0 216.36 59.135 A 25.045 25.045 0 0 0 219.3 59.3 A 26.142 26.142 0 0 0 222.112 59.157 Q 223.549 59.001 224.795 58.676 A 15.18 15.18 0 0 0 225.25 58.55 A 6.691 6.691 0 0 0 229.064 55.65 A 8.686 8.686 0 0 0 229.25 55.35 A 8.298 8.298 0 0 0 230.045 53.457 Q 230.608 51.54 230.687 48.74 A 33.304 33.304 0 0 0 230.7 47.8 L 230.7 40.8 L 233.1 40.8 L 233.1 47.9 A 30.794 30.794 0 0 1 232.958 50.974 Q 232.648 54.051 231.664 55.967 A 7.537 7.537 0 0 1 231.3 56.6 Q 229.5 59.4 226.4 60.25 Q 223.5 61.045 219.724 61.097 A 38.629 38.629 0 0 1 219.2 61.1 A 28.884 28.884 0 0 1 215.621 60.889 A 21.189 21.189 0 0 1 212.25 60.2 Q 209.2 59.3 207.4 56.5 A 9.225 9.225 0 0 1 206.375 54.221 Q 205.6 51.706 205.6 47.9 Z M 271.1 59.9 L 246.8 59.9 L 246.8 0.8 L 271.1 0.8 L 271.1 2.7 L 249.3 2.7 L 249.3 27.8 L 266.1 27.8 L 266.1 29.7 L 249.3 29.7 L 249.3 58 L 271.1 58 L 271.1 59.9 Z M 14 59.9 L 12 59.9 L 0 0.8 L 2.2 0.8 L 13.3 54.8 L 12.9 54.8 L 23.8 0.8 L 26.1 0.8 L 14 59.9 Z M 29.7 59.9 L 27.5 59.9 L 42.4 0.8 L 44.3 0.8 L 59.1 59.9 L 56.7 59.9 L 52.6 44.1 L 33.7 44.1 L 29.7 59.9 Z M 124.3 59.9 L 122.1 59.9 L 137 0.8 L 138.9 0.8 L 153.7 59.9 L 151.3 59.9 L 147.2 44.1 L 128.3 44.1 L 124.3 59.9 Z M 90.1 59.9 L 68.9 59.9 L 68.9 0.8 L 71.3 0.8 L 71.3 58 L 90.1 58 L 90.1 59.9 Z M 119.6 59.9 L 98.4 59.9 L 98.4 0.8 L 100.8 0.8 L 100.8 58 L 119.6 58 L 119.6 59.9 Z M 43.3 6.5 L 34 42.4 L 52.4 42.4 L 43.3 6.5 Z M 137.9 6.5 L 128.6 42.4 L 147 42.4 L 137.9 6.5 Z" vector-effect="non-scaling-stroke"/></g></svg>